<svg id="Layer_1" enable-background="new 0 0 512 512" height="512" viewBox="0 0 512 512" width="512" xmlns="http://www.w3.org/2000/svg"><g><path d="m377 191h13v-88h-29.4c.6 2.7 1 5.4 1 8.1.1 18.3-13.5 33.9-31.6 36.3v43.6h13v18h34zm-8-68.8c0-2.8 2.2-5 5-5s5 2.2 5 5v3.2c0 2.8-2.2 5-5 5s-5-2.2-5-5zm0 53.5v-32.6c0-2.8 2.2-5 5-5s5 2.2 5 5v32.6c0 2.8-2.2 5-5 5s-5-2.2-5-5z"/><path d="m371.1 247 1-13h-23.9l1 13z"/><path d="m356.7 93h33.3v-40.7c0-16.6-13.4-30-30-30s-30 13.4-30 30v22.5c11.3 1.5 21.1 8.3 26.7 18.2z"/><path d="m343 217h34v10h-34z"/><path d="m417 473h-260.4c-10.2 0-18.7 7.5-21 17h302.3c-2.2-9.5-10.8-17-20.9-17z"/><path d="m192 447c-9.8 0-18.4 6.5-21 16h231.5c-2.5-9.5-11.2-16-21-16z"/><path d="m255.4 421-6.4 16h66.9l-6.1-16h47.6c4.1 0 7.5-3.2 7.7-7.4v-49.6h54c2.2 0 4-1.8 4-4v-14h-130.1v14c0 2.2 1.8 4 4 4h53v37.2c0 2.7-2.3 4.8-5 4.8h-.1-42.2c-4.8-6-12.1-9.7-20.1-9.8-8 0-15.3 3.7-20.1 9.8h-31.2c-78.9 0-143.1-64.3-143.1-143.5s64.2-143.5 143.1-143.5h68.3c3.4 10.8 13.4 18.7 25.4 18.7 15.7.1 28.3-13.5 26.6-29.6-1.3-12.1-10.9-21.9-22.9-23.5-13.8-1.8-25.9 7-29.3 19.3h-68.1c-87 0-157.8 71.1-157.8 158.5s70.8 158.6 157.8 158.6zm26.9-11.8c4.9 0 8.8 3.9 8.8 8.8 0 4.9-3.9 8.8-8.8 8.8s-8.8-3.9-8.8-8.8 4-8.8 8.8-8.8zm42.7-311.7c7.5 0 13.6 6 13.6 13.5s-6 13.6-13.5 13.6-13.6-6-13.6-13.5c0-7.5 6-13.6 13.5-13.6z"/></g></svg>