<svg id="Capa_1" enable-background="new 0 0 512 512" height="512" viewBox="0 0 512 512" width="512" xmlns="http://www.w3.org/2000/svg"><g><g><path d="m438.839 36.795c-6.695 0-12.122 5.427-12.122 12.122s5.427 12.122 12.122 12.122 12.122-5.427 12.122-12.122-5.427-12.122-12.122-12.122z"/><path d="m397.423 36.795c-6.695 0-12.122 5.427-12.122 12.122s5.427 12.122 12.122 12.122 12.122-5.427 12.122-12.122-5.427-12.122-12.122-12.122z"/><circle cx="356.006" cy="48.917" r="12.122"/><path d="m484.297 0h-456.594c-15.275 0-27.703 12.428-27.703 27.703v456.597c0 15.274 12.426 27.7 27.7 27.7h338.36c4.143 0 7.5-3.358 7.5-7.5s-3.357-7.5-7.5-7.5h-338.36c-7.003 0-12.7-5.697-12.7-12.7v-386.47h482v14.3c0 4.142 3.357 7.5 7.5 7.5s7.5-3.358 7.5-7.5v-84.427c0-15.275-12.428-27.703-27.703-27.703zm-469.297 82.83v-55.127c0-7.004 5.698-12.703 12.703-12.703h456.594c7.005 0 12.703 5.699 12.703 12.703v55.127z"/><path d="m504.5 139.63c-4.143 0-7.5 3.358-7.5 7.5v337.17c0 7.003-5.697 12.7-12.7 12.7h-83.24c-4.143 0-7.5 3.358-7.5 7.5s3.357 7.5 7.5 7.5h83.24c15.274 0 27.7-12.426 27.7-27.7v-337.17c0-4.142-3.357-7.5-7.5-7.5z"/><path d="m76.191 479.675h32.325c4.143 0 7.5-3.358 7.5-7.5v-91.495h28.863c4.143 0 7.5-3.358 7.5-7.5v-250.52c0-4.142-3.357-7.5-7.5-7.5h-105.049c-4.143 0-7.5 3.358-7.5 7.5v157.26c0 4.142 3.357 7.5 7.5 7.5s7.5-3.358 7.5-7.5v-149.76h90.05v235.52h-90.05v-50.76c0-4.142-3.357-7.5-7.5-7.5s-7.5 3.358-7.5 7.5v58.26c0 4.142 3.357 7.5 7.5 7.5h28.861v91.495c0 4.142 3.358 7.5 7.5 7.5zm24.826-15h-17.326v-83.995h17.325v83.995z"/><path d="m92.354 202.89c15.275 0 27.703-12.428 27.703-27.703s-12.428-27.703-27.703-27.703-27.704 12.428-27.704 27.703 12.428 27.703 27.704 27.703zm0-40.406c7.005 0 12.703 5.699 12.703 12.703s-5.698 12.703-12.703 12.703-12.703-5.699-12.703-12.703 5.698-12.703 12.703-12.703z"/><path d="m92.354 275.622c15.275 0 27.703-12.428 27.703-27.704 0-15.275-12.428-27.703-27.703-27.703s-27.704 12.428-27.704 27.703c0 15.276 12.428 27.704 27.704 27.704zm0-40.407c7.005 0 12.703 5.699 12.703 12.703 0 7.005-5.698 12.704-12.703 12.704s-12.703-5.699-12.703-12.704c-.001-7.004 5.698-12.703 12.703-12.703z"/><path d="m92.354 348.354c15.275 0 27.703-12.428 27.703-27.703s-12.428-27.703-27.703-27.703-27.704 12.427-27.704 27.702 12.428 27.704 27.704 27.704zm0-40.407c7.005 0 12.703 5.699 12.703 12.703s-5.698 12.703-12.703 12.703-12.704-5.698-12.704-12.703 5.699-12.703 12.704-12.703z"/><path d="m375.199 479.675h32.325c4.143 0 7.5-3.358 7.5-7.5v-150.955l17.325-10.957v161.912c0 4.142 3.357 7.5 7.5 7.5h32.325c4.143 0 7.5-3.358 7.5-7.5v-234.358c0-2.734-1.487-5.251-3.883-6.57-2.394-1.318-5.317-1.229-7.628.233l-74.732 47.299-43.233-43.234c-2.466-2.466-6.31-2.908-9.271-1.061l-163.647 102.026c-2.197 1.37-3.532 3.775-3.532 6.364v129.301c0 4.142 3.357 7.5 7.5 7.5h32.325c4.143 0 7.5-3.358 7.5-7.5v-106.9l17.325-10.799v117.699c0 4.142 3.357 7.5 7.5 7.5h32.325c4.143 0 7.5-3.358 7.5-7.5v-147.197l17.325-10.799v157.995c0 4.142 3.357 7.5 7.5 7.5h32.325c4.143 0 7.5-3.358 7.5-7.5v-165.056l17.325 17.325v147.732c.001 4.142 3.359 7.5 7.501 7.5zm24.825-15h-17.325v-126.342c2.095.716 4.458.51 6.43-.737l10.896-6.89v133.969zm47.326 0v-163.898l17.325-10.957v174.855zm-258.602-117.639 155.058-96.671 43.263 43.263c2.48 2.48 6.349 2.912 9.314 1.034l68.292-43.223v20.632l-78.493 49.64-43.235-43.236c-2.466-2.466-6.309-2.908-9.271-1.062l-144.928 90.333zm17.325 117.639h-17.325v-79.252l17.325-10.799zm64.651 0h-17.325v-119.549l17.325-10.799zm47.325 0v-159.845l17.325-10.799v170.644z"/><path d="m181.248 162.484h290.927c4.143 0 7.5-3.358 7.5-7.5v-32.325c0-4.142-3.357-7.5-7.5-7.5h-290.927c-4.143 0-7.5 3.358-7.5 7.5v32.325c0 4.142 3.357 7.5 7.5 7.5zm7.5-32.325h275.927v17.325h-275.927z"/><path d="m181.248 194.809h290.927c4.143 0 7.5-3.358 7.5-7.5s-3.357-7.5-7.5-7.5h-290.927c-4.143 0-7.5 3.358-7.5 7.5s3.357 7.5 7.5 7.5z"/><path d="m181.248 227.134h126.271c4.143 0 7.5-3.358 7.5-7.5s-3.357-7.5-7.5-7.5h-126.271c-4.143 0-7.5 3.358-7.5 7.5s3.357 7.5 7.5 7.5z"/><path d="m181.248 259.459h85.863c4.143 0 7.5-3.358 7.5-7.5s-3.357-7.5-7.5-7.5h-85.863c-4.143 0-7.5 3.358-7.5 7.5s3.357 7.5 7.5 7.5z"/></g></g></svg>